<?xml version="1.0" encoding="UTF-8"?>
<svg xmlns="http://www.w3.org/2000/svg" width="840" height="420" viewBox="0 0 840 420">
  <rect width="100%" height="100%" fill="#ffffff"/>
  <text x="72" y="32" font-family="Segoe UI, Helvetica, Arial, sans-serif" font-size="18" font-weight="600" fill="#111827">Process heap used (bytes)</text>
  <line x1="72" y1="56" x2="72" y2="356" stroke="#9ca3af"/>
  <line x1="72" y1="356" x2="812" y2="356" stroke="#9ca3af"/>
  
      <rect x="84" y="221.15953426181554" width="92" height="134.84046573818446" fill="#1f2937" rx="3"/>
      <text x="130" y="392" text-anchor="middle" font-size="12" fill="#111827">baseline (pre-init)</text>
      <text x="130" y="213.15953426181554" text-anchor="middle" font-size="11" fill="#111827">14.7M</text>
      <rect x="188" y="220.51476310200533" width="92" height="135.48523689799467" fill="#1f2937" rx="3"/>
      <text x="234" y="392" text-anchor="middle" font-size="12" fill="#111827">after init</text>
      <text x="234" y="212.51476310200533" text-anchor="middle" font-size="11" fill="#111827">14.8M</text>
      <rect x="292" y="177.55675615379985" width="92" height="178.44324384620015" fill="#1f2937" rx="3"/>
      <text x="338" y="392" text-anchor="middle" font-size="12" fill="#111827">after 100 inserts</text>
      <text x="338" y="169.55675615379985" text-anchor="middle" font-size="11" fill="#111827">19.5M</text>
      <rect x="396" y="169.26903234423412" width="92" height="186.73096765576588" fill="#1f2937" rx="3"/>
      <text x="442" y="392" text-anchor="middle" font-size="12" fill="#111827">after 1000 inserts</text>
      <text x="442" y="161.26903234423412" text-anchor="middle" font-size="11" fill="#111827">20.4M</text>
      <rect x="500" y="162.45600423878696" width="92" height="193.54399576121304" fill="#1f2937" rx="3"/>
      <text x="546" y="392" text-anchor="middle" font-size="12" fill="#111827">after 10000 inserts</text>
      <text x="546" y="154.45600423878696" text-anchor="middle" font-size="11" fill="#111827">21.1M</text>
      <rect x="604" y="56.030822204315996" width="92" height="299.969177795684" fill="#1f2937" rx="3"/>
      <text x="650" y="392" text-anchor="middle" font-size="12" fill="#111827">after recall</text>
      <text x="650" y="48.030822204315996" text-anchor="middle" font-size="11" fill="#111827">32.7M</text>
      <rect x="708" y="56" width="92" height="300" fill="#1f2937" rx="3"/>
      <text x="754" y="392" text-anchor="middle" font-size="12" fill="#111827">after close</text>
      <text x="754" y="48" text-anchor="middle" font-size="11" fill="#111827">32.7M</text>
</svg>